<svg aria-hidden="true" style="position: absolute; width: 0; height: 0; overflow: hidden;" version="1.1" xmlns="http://www.w3.org/2000/svg" xmlns:xlink="http://www.w3.org/1999/xlink">
<defs>
<symbol id="icon-Vector-1" viewBox="0 0 22 32">
<path d="M4.438 0c-0.882 0.030-1.669 0.413-2.23 1.011l-0.002 0.002c-0.534 0.57-0.862 1.339-0.862 2.184 0 0.923 0.391 1.755 1.016 2.339l0.002 0.002 11.2 10.463-11.2 10.462c-0.627 0.586-1.018 1.418-1.018 2.341 0 0.845 0.328 1.614 0.863 2.186l-0.002-0.002c0.586 0.625 1.416 1.015 2.337 1.015 0.847 0 1.617-0.329 2.189-0.866l-0.002 0.002 13.7-12.8c0.625-0.586 1.014-1.416 1.014-2.337s-0.389-1.752-1.013-2.336l-0.002-0.002-13.7-12.8c-0.571-0.535-1.341-0.864-2.187-0.864-0.037 0-0.075 0.001-0.112 0.002l0.005-0z"></path>
</symbol>
</defs>
</svg>
